<?xml version="1.0" encoding="iso-8859-1"?>
<!-- Generator: Adobe Illustrator 19.0.0, SVG Export Plug-In . SVG Version: 6.00 Build 0)  -->
<svg version="1.1" id="Capa_1" xmlns="http://www.w3.org/2000/svg" xmlns:xlink="http://www.w3.org/1999/xlink" x="0px" y="0px"
	 viewBox="0 0 513.2 513.2" style="enable-background:new 0 0 513.2 513.2;" xml:space="preserve">
<path style="fill:#425A6B;" d="M393.998,456.667c0,0,11.733,37.333,7.467,56.533H197.732c0,0,2.133-45.867,14.933-53.333
	C211.598,459.867,323.598,489.733,393.998,456.667z"/>
<ellipse style="fill:#F3F3F3;" cx="161.465" cy="372.4" rx="18.133" ry="10.667"/>
<path style="fill:#F26F5A;" d="M215.865,212.4l-19.2-4.267c0,0-11.733,8.533-11.733,28.8c-1.067,20.267-1.067,59.733-2.133,74.667
	c-1.067,14.933-12.8,53.333-12.8,53.333s-14.933,45.867,0,50.133c14.933,4.267,49.067-4.267,49.067-4.267s33.067-67.2,34.133-73.6
	C254.265,331.867,215.865,212.4,215.865,212.4z"/>
<path style="fill:#E8EAE8;" d="M199.865,415.067L199.865,415.067c-10.667,1.067-22.4,2.133-29.867,1.067
	c-8.533-2.133-7.467-19.2-4.267-32C217.998,374.533,199.865,415.067,199.865,415.067z"/>
<path id="SVGCleanerId_0" style="fill:#FFD15C;" d="M342.798,88.667l1.067,9.6c0,0,0,16-1.067,21.333v35.2l-17.067,32l-38.4,2.133
	l-16-16l1.067-37.333c0,0-10.667-16-10.667-32s0-20.267,0-20.267s-7.467-44.8,4.267-55.467c11.733-8.533,67.2-5.333,67.2-5.333
	L343.865,39.6L342.798,88.667z"/>
<g>
	<path id="SVGCleanerId_0_1_" style="fill:#FFD15C;" d="M342.798,88.667l1.067,9.6c0,0,0,16-1.067,21.333v35.2l-17.067,32
		l-38.4,2.133l-16-16l1.067-37.333c0,0-10.667-16-10.667-32s0-20.267,0-20.267s-7.467-44.8,4.267-55.467
		c11.733-8.533,67.2-5.333,67.2-5.333L343.865,39.6L342.798,88.667z"/>
</g>
<path style="fill:#F5B54C;" d="M343.865,99.333l-1.067-8.533c0,0,0-1.067-1.067-1.067c0-1.067,0-2.133,0-2.133l0,0l0,0
	c0,0,0-1.067-1.067-1.067l0,0c0-1.067-1.067-1.067-1.067-2.133l-1.067-1.067c0,0,0,0,0-1.067l0,0l0,0l0,0l0,0l0,0l0,0V81.2l0,0
	v1.067h1.067h1.067c1.067,0,1.067,0,2.133,0h1.067v-3.2h-1.067h-1.067h-1.067h-1.067h-1.067c0,0,0,0-1.067,0l0,0c0,0,0,0-1.067,0
	l0,0h-1.067l0,0l0,0l0,0l0,0v1.067c0,0,0,0,0,1.067l0,0v1.067l-1.067,2.133l1.067,1.067c0,1.067,1.067,1.067,1.067,2.133l0,0
	c0,0,0,1.067,1.067,1.067c0,1.067,1.067,1.067,1.067,2.133l1.067,1.067c0,1.067,1.067,2.133,2.133,4.267
	c0,1.067,1.067,1.067,1.067,2.133L343.865,99.333c0,0,0,0,0,1.067c-2.133-3.2-2.133-3.2-2.133-3.2v1.067v1.067l2.133,7.467
	C343.865,102.533,343.865,99.333,343.865,99.333z"/>
<path style="fill:#F05640;" d="M352.398,162.267c0,0,21.333,12.8,28.8,14.933s36.267,22.4,36.267,22.4s-25.6,25.6-24.533,43.733
	c1.067,18.133,18.133,32,18.133,32s0,29.867-2.133,40.533c-2.133,10.667-7.467,19.2-9.6,28.8s-8.533,96-8.533,96l-37.333,28.8
	l-112,9.6l-33.067-25.6c0,0,3.2-23.467,5.333-33.067c2.133-9.6,8.533-41.6,9.6-46.933c1.067-5.333,3.2-35.2,0-45.867
	c-3.2-10.667-22.4-48-22.4-57.6c0-9.6,1.067-52.267-4.267-59.733c0,0,22.4-18.133,39.467-25.6c16-7.467,33.067-20.267,33.067-20.267
	l28.8,18.133h6.4l20.267-4.267L352.398,162.267z"/>
<g>
	<path style="fill:#425A6B;" d="M301.198,196.4l1.067,12.8c0,0,6.4,23.467,6.4,29.867c0,6.4-8.533,83.2-7.467,98.133
		c1.067,14.933-4.267,72.533-4.267,72.533L275.598,436.4l-19.2-27.733c0,0,9.6-109.867,18.133-137.6
		c8.533-28.8,17.067-62.933,17.067-62.933L301.198,196.4z"/>
	<path style="fill:#425A6B;" d="M288.398,183.6c10.667-3.2,20.267-3.2,26.667,0l2.133,10.667c0,0-12.8,6.4-13.867,14.933
		c-3.2-2.133-7.467-2.133-10.667,0c1.067-1.067-5.333-12.8-9.6-14.933c-4.267-2.133-3.2-3.2-3.2-3.2L288.398,183.6z"/>
</g>
<polygon style="fill:#E8EAE8;" points="308.665,371.333 185.998,356.4 157.198,356.4 188.132,372.4 301.198,377.733 "/>
<path style="fill:#F3F3F3;" d="M188.132,372.4c1.067-1.067,120.533-1.067,120.533-1.067S310.798,382,301.198,382
	c-9.6,0-118.4-3.2-118.4-3.2L188.132,372.4z"/>
<path style="fill:#425A6B;" d="M339.598,54.533c-1.067,3.2-10.667,10.667-7.467,18.133c3.2,7.467,7.467,5.333,7.467,12.8h8.533
	c3.2-8.533,6.4-20.267,8.533-28.8c3.2-13.867,1.067-25.6-4.267-33.067c-5.333-7.467-18.133-22.4-39.467-23.467
	c-21.333-1.067-46.933,4.267-51.2,16s-5.333,34.133-3.2,41.6c2.133,7.467,1.067,26.667,5.333,29.867c0,0,0-22.4,1.067-28.8
	c0-6.4-3.2-21.333,8.533-20.267c11.733,0,27.733,3.2,48-2.133C341.732,31.067,340.665,51.333,339.598,54.533z"/>
<path style="fill:#F5B54C;" d="M342.798,119.6L342.798,119.6c0,1.067-3.2,18.133-17.067,32
	c-14.933,13.867-30.933,13.867-20.267,18.133c10.667,4.267,8.533,5.333,1.067,7.467c-5.333,1.067-24.533,4.267-34.133-1.067l0,0
	l1.067-37.333c0,0,3.2,7.467,8.533,11.733c4.267,4.267,14.933,9.6,21.333,8.533c6.4-1.067,14.933-7.467,23.467-13.867
	C332.132,137.733,342.798,119.6,342.798,119.6z"/>
<path style="fill:#FFD15C;" d="M391.865,128.133c-4.267-6.4-4.267-7.467-4.267-12.8c0-3.2,1.067-17.067,2.133-23.467
	c0-2.133,0-3.2-2.133-4.267c-2.133-2.133-5.333-5.333-6.4-7.467c-2.133-3.2-10.667-16-10.667-16s-4.267-2.133-6.4-1.067
	c-2.133,2.133-14.933,2.133-14.933,2.133s-4.267,1.067-5.333,4.267h-9.6c0,0-1.067,4.267,2.133,6.4c0,0,1.067,3.2,6.4,3.2
	c-1.067,0-5.333,0-7.467,4.267l4.267,5.333c0,0,1.067,4.267,3.2,6.4c2.133,2.133,2.133,8.533,2.133,9.6
	c0,2.133,2.133,21.333,4.267,24.533c2.133,3.2,8.533,8.533,11.733,11.733c3.2,3.2,21.333,25.6,21.333,25.6l22.4-19.2
	C403.598,146.267,395.065,134.533,391.865,128.133z M364.132,97.2h-5.333c0,0-3.2,1.067-4.267-3.2c0-4.267-4.267-9.6-4.267-9.6
	c2.133,0,2.133-1.067,4.267-2.133l7.467,3.2l3.2,9.6L364.132,97.2z"/>
<g>
	<path style="fill:#F5B54C;" d="M374.798,78c-1.067-1.067-2.133-2.133-2.133-3.2c-1.067-2.133-2.133-3.2-3.2-5.333l-1.067-1.067
		c0,0,0,0,0-1.067l0,0l0,0c-1.067,0-2.133-1.067-2.133-1.067c-1.067,0-3.2,0-4.267,0l-3.2,1.067c-1.067,0-2.133,1.067-3.2,1.067
		s-2.133,1.067-2.133,1.067s0,0-1.067,0c0,0,0,0-1.067,0c-2.133,1.067-4.267,3.2-5.333,5.333l-1.067,1.067
		c-1.067,1.067-1.067,2.133-2.133,3.2c-1.067,1.067-1.067,2.133-1.067,4.267l0,0c0,3.2,0,3.2,0,3.2s0,1.067,1.067,1.067l0,0
		c0,0,0,0,1.067,0l0,0c1.067,0,2.133,0,2.133,0c1.067,0,2.133-1.067,2.133-1.067c1.067,0,1.067-1.067,2.133-1.067V84.4
		c-3.2,3.2-6.4,3.2-7.467,2.133c0,0-1.067-2.133,0-3.2c0-1.067,1.067-2.133,3.2-4.267c0,0,0,0,0-1.067s1.067-1.067,1.067-2.133
		s1.067-1.067,1.067-1.067c3.2-3.2,10.667-7.467,16-6.4c3.2,1.067,4.267,3.2,6.4,5.333C372.665,75.867,373.732,76.933,374.798,78
		s1.067,2.133,2.133,2.133C375.865,79.067,374.798,78,374.798,78z"/>
	<path style="fill:#F5B54C;" d="M371.598,91.867c-3.2,0-5.333,2.133-6.4,4.267s-2.133,5.333-2.133,8.533
		c-1.067,6.4-2.133,12.8-3.2,19.2c0,1.067,0,3.2,0,4.267c-1.067-5.333-1.067-10.667,1.067-16c-2.133,2.133-3.2,4.267-4.267,7.467
		c0-2.133,0-4.267,1.067-5.333c1.067-1.067,2.133-3.2,2.133-4.267c0-2.133-2.133-4.267-2.133-5.333c0-3.2,2.133-5.333,5.333-5.333
		c-2.133,0-4.267,0-7.467,0h-1.067v-1.067c0-4.267-1.067-7.467-4.267-11.733l0,0c2.133,2.133,3.2,5.333,4.267,8.533
		c0,1.067,0,2.133,1.067,2.133c1.067,0,3.2,0,4.267,0c1.067,0,1.067,0,2.133,0c1.067,0,1.067,0,1.067,0s0,0,0-1.067
		c0-2.133-2.133-4.267-3.2-6.4c-1.067-1.067-3.2-3.2-4.267-4.267c-2.133-2.133-4.267-5.333-3.2-8.533
		c1.067,2.133,3.2,3.2,5.333,2.133h1.067c1.067,0,1.067-1.067,1.067-2.133s0-1.067,1.067-2.133c0,1.067,0,1.067,0,2.133
		s0,1.067,0,2.133s1.067,1.067,1.067,1.067c1.067,1.067,2.133,1.067,3.2,2.133c1.067,0,3.2,1.067,4.267,1.067
		c-1.067,0-2.133,0-3.2,0s-2.133,1.067-2.133,2.133s0,1.067,1.067,2.133c1.067,1.067,1.067,3.2,1.067,4.267
		c0-1.067,1.067-1.067,1.067-1.067c1.067,0,1.067,0,2.133,0C369.465,91.867,370.532,91.867,371.598,91.867z"/>
</g>
<path style="fill:#344A5E;" d="M338.532,74.8c0,0-8.533,1.067-10.667,0c-2.133-1.067-13.867-1.067-18.133,0
	c-4.267,0-7.467,1.067-8.533,2.133s-7.467,1.067-9.6,0c-3.2-1.067-5.333-3.2-11.733-4.267c-6.4-1.067-17.067,0-19.2,0
	s-5.333,0-5.333,0v4.267c0,0,2.133,1.067,2.133,2.133s1.067,11.733,4.267,16s8.533,4.267,10.667,4.267c3.2,0,9.6,0,13.867-3.2
	c4.267-4.267,5.333-11.733,5.333-12.8s0-1.067,2.133-1.067c0,0,2.133,0,3.2,1.067c1.067,2.133,2.133,10.667,7.467,13.867
	c5.333,3.2,13.867,4.267,19.2,3.2c5.333-1.067,8.533-8.533,8.533-10.667s1.067-8.533,3.2-8.533c1.067-1.067,4.267-1.067,4.267-1.067
	L338.532,74.8z M289.465,85.467c-1.067,4.267-4.267,9.6-8.533,10.667c-4.267,1.067-10.667,1.067-14.933-1.067
	c-3.2-2.133-5.333-7.467-5.333-12.8c0-4.267,1.067-6.4,5.333-7.467s14.933,0,17.067,0c1.067,0,2.133,1.067,2.133,1.067
	c2.133,1.067,3.2,2.133,3.2,4.267C289.465,82.267,289.465,84.4,289.465,85.467z M329.998,91.867c-1.067,3.2-5.333,6.4-10.667,6.4
	s-10.667-1.067-13.867-5.333c-2.133-2.133-4.267-7.467-4.267-10.667c-1.067-2.133,0-4.267,2.133-6.4l0,0c3.2,0,16,0,20.267,0
	s7.467,3.2,8.533,5.333C332.132,83.333,331.065,89.733,329.998,91.867z"/>
<path style="fill:#FFD15C;" d="M343.865,68.4h-9.6c0,0-1.067,4.267,2.133,6.4c0,0,1.067,3.2,6.4,4.267L343.865,68.4z"/>
<g>
	<path style="fill:#F5B54C;" d="M354.532,65.2c0,0-5.333,2.133-6.4,3.2c-1.067,2.133-2.133,4.267-3.2,6.4
		c-1.067,1.067-2.133,3.2-3.2,4.267l0,0c1.067,0,1.067-1.067,2.133-1.067c1.067-1.067,2.133-3.2,3.2-4.267s2.133-3.2,3.2-4.267
		c1.067-3.2,5.333-4.267,8.533-4.267C357.732,65.2,355.598,65.2,354.532,65.2z"/>
	<path style="fill:#F5B54C;" d="M341.732,70.533c-1.067,0-1.067,1.067-2.133,1.067c-1.067,1.067-4.267,4.267-4.267,4.267
		s1.067,0,1.067-1.067c1.067,0,2.133-1.067,3.2-2.133c2.133-1.067,2.133-1.067,3.2-2.133c0-1.067,1.067-1.067,1.067-1.067
		C342.798,69.467,341.732,70.533,341.732,70.533z"/>
</g>
<path style="fill:#425A6B;" d="M352.398,163.333c-3.2-1.067-5.333-17.067-9.6-18.133"/>
<path style="fill:#F26F5A;" d="M375.865,163.333l18.133,32l9.6,19.2c0,0-11.733,9.6-11.733,27.733s19.2,29.867,19.2,29.867
	s10.667,3.2,13.867,6.4c3.2,3.2,26.667,18.133,33.067,16c6.4-1.067,13.867-4.267,22.4-8.533s21.333-21.333,12.8-37.333
	s-17.067-30.933-28.8-40.533c-10.667-8.533-35.2-36.267-35.2-36.267l-25.6-32C403.598,142,379.065,153.733,375.865,163.333z"/>
<path style="fill:#F05640;" d="M456.932,277.467c0,0-6.4,0-18.133-3.2c-11.733-3.2-14.933-17.067-18.133-22.4
	c-3.2-5.333-17.067-35.2-17.067-35.2s0,0-1.067,1.067l7.467,14.933l14.933,30.933l6.4,10.667c0,0,6.4,12.8,8.533,13.867
	c2.133,2.133,5.333,3.2,2.133,1.067c-3.2-2.133-9.6-16-9.6-16s3.2,3.2,4.267,4.267c1.067,1.067,5.333,5.333,9.6,8.533
	c4.267,2.133,7.467,0,3.2,0c-4.267-1.067-12.8-9.6-12.8-9.6s7.467,3.2,14.933,3.2C460.132,278.533,456.932,277.467,456.932,277.467z
	"/>
<path style="fill:#CED6E0;" d="M17.465,240.133l48,119.467c1.067,2.133,2.133,3.2,4.267,3.2l114.133,16c3.2,0,6.4-3.2,5.333-6.4
	l-52.267-132.267c-1.067-2.133-2.133-3.2-4.267-3.2l-110.933-3.2C18.532,233.733,16.398,236.933,17.465,240.133z"/>
<path style="fill:#FFD15C;" d="M199.865,399.067l-4.267,6.4c0,0-9.6,1.067-18.133,0c-8.533,0-13.867-4.267-16-6.4
	c-2.133-2.133-3.2-3.2-8.533-4.267c-5.333-1.067-11.733-1.067-14.933-4.267c0,0-8.533-1.067-10.667-7.467c0,0-3.2-2.133-8.533-3.2
	c-5.333-1.067-10.667-1.067-10.667-6.4l-5.333-8.533c0,0,4.267-8.533,10.667-3.2s5.333,6.4,5.333,6.4l3.2,1.067
	c0,0-2.133-10.667-2.133-21.333c-1.067-9.6-3.2-10.667,1.067-12.8c4.267-2.133,6.4,1.067,6.4,1.067
	c0-2.133,8.533-8.533,11.733,2.133c2.133,6.4,2.133,12.8,2.133,12.8s0-5.333,6.4-4.267c7.467,1.067,6.4,16,7.467,19.2
	c1.067,2.133,1.067,6.4,3.2,8.533c2.133,1.067,4.267,2.133,6.4,2.133s4.267,0,4.267,0s0-1.067,1.067-1.067l13.867,2.133h1.067
	c1.067,0,1.067,0,2.133,0c1.067,0,2.133,0,2.133,0c1.067,2.133,0,6.4,0,6.4s5.333-1.067,7.467,5.333
	C198.798,396.933,199.865,399.067,199.865,399.067z"/>
<g>
	<path style="fill:#F5B54C;" d="M165.732,386.267c-2.133-2.133-5.333-6.4-6.4-8.533c1.067,1.067,3.2,1.067,4.267,1.067
		c2.133,0,4.267,0,4.267,0s0,0,0-1.067c0,2.133,0,4.267,0,6.4c0,4.267,0,2.133,1.067,4.267
		C169.998,390.533,168.932,388.4,165.732,386.267z"/>
	<path style="fill:#F5B54C;" d="M140.132,353.2c0,0,1.067,2.133,2.133,5.333c0,2.133,1.067,3.2,1.067,5.333
		c0,2.133,1.067,4.267,1.067,6.4c0,2.133,0,4.267,1.067,6.4c0,1.067,0,1.067,1.067,2.133l1.067,1.067l1.067,1.067
		c2.133,3.2,3.2,4.267,3.2,4.267s-2.133-1.067-5.333-3.2c0,0-1.067,0-1.067-1.067c0,0-1.067,0-1.067-1.067
		c-1.067-1.067-1.067-2.133-2.133-3.2c0-2.133-1.067-4.267-1.067-6.4c0-2.133,0-4.267-1.067-6.4c0-2.133,0-4.267,0-6.4
		C140.132,355.333,140.132,353.2,140.132,353.2z"/>
	<path style="fill:#F5B54C;" d="M126.265,338.267c0,0,1.067,2.133,2.133,6.4c0,1.067,0,2.133,1.067,3.2c0,1.067,0,2.133,1.067,3.2
		v1.067v1.067c0,1.067,0,1.067,0,2.133c0,1.067,0,2.133,0,4.267c0,2.133,0,5.333,0,7.467v1.067c0,0,0,0,0,1.067v1.067
		c0,1.067,1.067,2.133,1.067,3.2c1.067,3.2,2.133,6.4,2.133,6.4s-1.067-2.133-3.2-5.333c0-1.067-1.067-2.133-1.067-3.2
		c0,0,0-1.067-1.067-1.067V369.2v-1.067c0-2.133,0-5.333-1.067-7.467c0-1.067,0-2.133,0-3.2s0-1.067,0-2.133c0,0,0,0,0-1.067V353.2
		c0-1.067,0-2.133,0-3.2s0-2.133,0-3.2C125.198,341.467,126.265,338.267,126.265,338.267z"/>
</g>
<g>
	<path style="fill:#FFFFFF;" d="M127.332,339.333c0,0,3.2-1.067,6.4,0c0,0,1.067,6.4-3.2,7.467
		C127.332,346.8,127.332,339.333,127.332,339.333z"/>
	<path style="fill:#FFFFFF;" d="M118.798,340.4c0,0,3.2-2.133,6.4,0c0,0,0,5.333-2.133,6.4
		C119.865,347.867,118.798,340.4,118.798,340.4z"/>
	<path style="fill:#FFFFFF;" d="M142.265,353.2c0,0,2.133-1.067,6.4-1.067c0,0,1.067,6.4-2.133,7.467
		C144.398,360.667,142.265,358.533,142.265,353.2z"/>
	<path style="fill:#FFFFFF;" d="M107.065,374.533L101.732,366C102.798,366,113.465,370.267,107.065,374.533z"/>
</g>
<path style="fill:#344A5E;" d="M210.532,444.933c0,0,72.533,49.067,181.333-7.467l2.133,19.2
	c-18.133,8.533-104.533,55.467-185.6,5.333L210.532,444.933z"/>
<g>
	<path style="fill:#F26F5A;" d="M342.798,146.267c0,0-3.2,13.867-10.667,18.133c-7.467,5.333-27.733,17.067-27.733,17.067
		s10.667,18.133,10.667,26.667c0,0,35.2-32,37.333-43.733C352.398,163.333,348.132,146.267,342.798,146.267z"/>
	<path style="fill:#F26F5A;" d="M299.065,181.467c0,0-8.533,0-12.8,11.733c-4.267,11.733-3.2,13.867-3.2,13.867
		S269.198,186.8,268.132,177.2c-1.067-9.6,3.2-24.533,3.2-24.533s0,8.533,4.267,12.8C279.865,170.8,299.065,181.467,299.065,181.467
		z"/>
</g>
<g>
</g>
<g>
</g>
<g>
</g>
<g>
</g>
<g>
</g>
<g>
</g>
<g>
</g>
<g>
</g>
<g>
</g>
<g>
</g>
<g>
</g>
<g>
</g>
<g>
</g>
<g>
</g>
<g>
</g>
</svg>
