<?xml version="1.0" encoding="iso-8859-1"?>
<!-- Generator: Adobe Illustrator 19.0.0, SVG Export Plug-In . SVG Version: 6.00 Build 0)  -->
<svg version="1.1" id="Capa_1" xmlns="http://www.w3.org/2000/svg" xmlns:xlink="http://www.w3.org/1999/xlink" x="0px" y="0px"
	 viewBox="0 0 511.997 511.997" style="enable-background:new 0 0 511.997 511.997;" xml:space="preserve">
<path style="fill:#FF5722;" d="M461.61,43.091L312.276,0.424c-2.325-0.667-4.807-0.524-7.04,0.405l-256,106.667
	c-3.965,1.659-6.547,5.536-6.549,9.835v277.333c0,5.85,4.711,10.608,10.56,10.667c-5.891,0.036-10.637,4.842-10.6,10.733
	c0.028,4.584,2.982,8.637,7.336,10.068l256,85.333c1.089,0.352,2.226,0.532,3.371,0.533c0.989-0.006,1.973-0.15,2.923-0.427
	l149.333-42.667c4.576-1.304,7.736-5.481,7.744-10.24V53.331C469.346,48.572,466.186,44.395,461.61,43.091z M58.132,404.2l64-32
	c3.609-1.808,5.888-5.499,5.888-9.536V136.339l192-48v357.888L54.975,405.459c-0.501-0.084-1.007-0.127-1.515-0.128
	C55.083,405.31,56.68,404.923,58.132,404.2z"/>
<path d="M309.354,511.997c-1.144-0.001-2.282-0.181-3.371-0.533l-256-85.333c-5.597-1.839-8.643-7.867-6.804-13.464
	c1.431-4.355,5.484-7.308,10.068-7.336c-5.849-0.059-10.56-4.817-10.56-10.667V117.331c-0.003-4.311,2.59-8.2,6.571-9.856
	l256-106.667c2.236-0.915,4.714-1.057,7.04-0.405l149.333,42.667c4.576,1.314,7.727,5.501,7.723,10.261v405.333
	c-0.008,4.759-3.168,8.936-7.744,10.24l-149.333,42.667C311.327,511.848,310.343,511.991,309.354,511.997z M176.127,445.693
	l133.461,44.48l138.432-39.552V61.373L310.015,21.949L64.02,124.435v252.971l42.667-21.333V127.997
	c0.001-4.896,3.335-9.162,8.085-10.347l213.333-53.333c5.716-1.426,11.505,2.052,12.931,7.768c0.21,0.843,0.317,1.709,0.317,2.578
	v384c-0.002,5.891-4.78,10.665-10.671,10.663c-0.541,0-1.082-0.042-1.617-0.124L176.127,445.693z M53.46,405.331
	c0.508,0.001,1.014,0.044,1.515,0.128l265.045,40.768V88.339l-192,48v226.325c0,4.037-2.279,7.728-5.888,9.536l-64,32
	C56.68,404.923,55.083,405.31,53.46,405.331z"/>
<g>
</g>
<g>
</g>
<g>
</g>
<g>
</g>
<g>
</g>
<g>
</g>
<g>
</g>
<g>
</g>
<g>
</g>
<g>
</g>
<g>
</g>
<g>
</g>
<g>
</g>
<g>
</g>
<g>
</g>
</svg>
