<svg id="Capa_1" enable-background="new 0 0 512.032 512.032" height="512" viewBox="0 0 512.032 512.032" width="512" xmlns="http://www.w3.org/2000/svg"><g><path d="m7.5 511.516v-511h61l103.379 19.942 96.621-19.942h62v511h-62l-98.623-23.425-101.377 23.425z" fill="#667b93"/><path d="m68.5.516h200v511h-200z" fill="#e4e8ed"/><g><path d="m452.37 265.706-82.37 113.84-28.65 39.6h-28.28l-8.07 8.07-28 27.99-.7.71-21.22-21.21.71-.71 31.4-31.4 52.93-52.93 98.1-98.1z" fill="#e4e8ed"/><path d="m244.123 413.845c-20.502-20.502-53.744-20.502-74.246 0-20.503 20.502-20.503 53.744 0 74.246 20.502 20.502 53.744 20.502 74.246 0l37.123-37.123zm-21.213 53.033c-8.773 8.773-23.047 8.773-31.82 0-8.772-8.772-8.773-23.047 0-31.82s23.047-8.772 31.82 0l15.91 15.91z" fill="#ed9c87"/><path d="m370 379.546-28.65 39.6h-28.28l-8.07 8.07-17.81-24.62 52.93-52.93z" fill="#c8d1da"/><path d="m206.667 265.706 14.142-14.142 182.433 182.434.707.707-21.213 21.213-.707-.707-36.062-36.063h-28.285z" fill="#e4e8ed"/><path d="m489.156 413.845c-20.503-20.503-53.744-20.503-74.246 0l-37.123 37.123 37.123 37.123c20.503 20.502 53.744 20.502 74.246 0 20.502-20.502 20.502-53.743 0-74.246zm-21.213 53.033c-8.773 8.773-23.047 8.773-31.82 0l-15.91-15.91 15.91-15.91c8.773-8.772 23.047-8.773 31.82 0 8.772 8.773 8.772 23.047 0 31.82z" fill="#ed9c87"/></g><g><path d="m68.5 39.516h200v144h-200z" fill="#ed9c87"/></g><path d="m142.287 143.943v-64.853l52.426 32.426z" fill="#fff"/><g fill="#fff"><path d="m46 483.516h-15v-15h15zm0-55h-15v-15h15zm0-55h-15v-15h15zm0-55h-15v-15h15zm0-55h-15v-15h15zm0-55h-15v-15h15zm0-55h-15v-15h15zm0-55h-15v-15h15zm0-55h-15v-15h15z"/><path d="m306 263.516h-15v-15h15zm0-55h-15v-15h15zm0-55h-15v-15h15zm0-55h-15v-15h15zm0-55h-15v-15h15z"/></g><g id="Outline_8_"><path d="m185.786 429.755c-11.696 11.697-11.696 30.729 0 42.426 5.85 5.849 13.53 8.773 21.214 8.773 7.682 0 15.365-2.925 21.214-8.773l21.213-21.213-21.213-21.213c-11.697-11.697-30.731-11.697-42.428 0zm31.821 31.82c-5.848 5.848-15.364 5.849-21.214 0-5.849-5.849-5.849-15.365-.001-21.213 2.925-2.924 6.766-4.386 10.607-4.386s7.683 1.462 10.606 4.386l10.607 10.607z"/><path d="m494.459 408.542c-11.333-11.333-26.399-17.574-42.427-17.574-16.026 0-31.094 6.241-42.427 17.574l-10.606 10.606-28.076-28.076 91.272-126.151-23.978-23.96-108.698 108.708-108.71-108.71-23.963 23.964 91.263 126.146-28.078 28.078-10.605-10.605c-23.396-23.396-61.459-23.394-84.854 0-11.331 11.333-17.572 26.4-17.572 42.426s6.241 31.094 17.573 42.426c11.697 11.697 27.062 17.545 42.427 17.545s30.729-5.849 42.427-17.545l42.426-42.426-.003-.002 24.327-24.32h26.687l24.32 24.319-.003.003 42.426 42.426c11.333 11.333 26.4 17.574 42.427 17.574s31.094-6.241 42.427-17.574c11.332-11.333 17.573-26.4 17.573-42.426s-6.243-31.093-17.575-42.426zm-56.237-146.371 4.323 4.32-82.364 113.84-20.055-20.055zm-199.403 220.617c-17.545 17.545-46.094 17.545-63.639 0-8.5-8.5-13.181-19.8-13.181-31.82s4.681-23.32 13.181-31.82c8.772-8.772 20.296-13.159 31.819-13.159s23.047 4.387 31.819 13.159l31.82 31.82zm42.424-42.429-10.604-10.604 26.376-26.376 8.906 12.31zm96.546 0-28.713-28.713h-27.565l-105.018-145.157 4.316-4.316 167.583 167.583zm106.063 42.429c-8.499 8.5-19.799 13.18-31.819 13.18s-23.32-4.681-31.819-13.18l-31.82-31.82 31.82-31.82c8.499-8.5 19.8-13.181 31.819-13.181 12.021 0 23.32 4.681 31.819 13.181 8.5 8.5 13.181 19.8 13.181 31.82s-4.681 23.321-13.181 31.82z"/><path d="m452.032 420.979c-8.02 0-15.553 3.117-21.213 8.776l-21.213 21.213 21.213 21.213c5.659 5.66 13.193 8.776 21.214 8.776 8.02 0 15.553-3.117 21.213-8.776 5.659-5.659 8.775-13.193 8.776-21.213 0-8.02-3.117-15.554-8.776-21.213-5.659-5.66-13.193-8.776-21.214-8.776zm10.607 40.596c-2.826 2.826-6.593 4.383-10.606 4.383s-7.779-1.557-10.606-4.383l-10.606-10.606 10.607-10.607c2.826-2.826 6.593-4.383 10.606-4.383s7.779 1.557 10.606 4.383c2.826 2.827 4.383 6.593 4.383 10.607-.001 4.012-1.557 7.779-4.384 10.606z"/><path d="m323 .516h15v315.5h-15z"/><path d="m0 .516h15v511h-15z"/><path d="m76 335.016h142.5v-15h-142.5v-129h185v65h15v-255.5h-15v31.5h-185v-31.5h-15v511h15v-32.5h52.5v-15h-52.5zm0-288h185v129h-185z"/><path d="m134.787 157.4 74.184-45.884-74.184-45.884zm15-64.853 30.668 18.969-30.668 18.969z"/></g></g></svg>